<?xml version="1.0" encoding="utf-8"?>
<!-- Generator: Adobe Illustrator 16.0.0, SVG Export Plug-In . SVG Version: 6.00 Build 0)  -->
<!DOCTYPE svg PUBLIC "-//W3C//DTD SVG 1.1//EN" "http://www.w3.org/Graphics/SVG/1.1/DTD/svg11.dtd">
<svg version="1.1"
	 id="Layer_1" xmlns:sodipodi="http://sodipodi.sourceforge.net/DTD/sodipodi-0.dtd" xmlns:inkscape="http://www.inkscape.org/namespaces/inkscape" xmlns:dc="http://purl.org/dc/elements/1.1/" xmlns:cc="http://creativecommons.org/ns#" xmlns:rdf="http://www.w3.org/1999/02/22-rdf-syntax-ns#" xmlns:svg="http://www.w3.org/2000/svg"
	 xmlns="http://www.w3.org/2000/svg" xmlns:xlink="http://www.w3.org/1999/xlink" x="0px" y="0px" width="1280px" height="800px"
	 viewBox="0 0 1280 800" enable-background="new 0 0 1280 800" xml:space="preserve">
<g transform="translate(0,-952.36218)">
	<path fill="#FFFFFF" stroke="#FFFFFF" stroke-width="2" stroke-miterlimit="10" d="M1078.469,1056.824
		c-98.895,0-179.2,80.307-179.2,179.2c0,68.811,39.022,128.394,96,158.398v72v96c0.001,3.534,2.866,6.399,6.399,6.399h25.601v32
		c0.001,3.534,2.866,6.399,6.399,6.4h89.601c3.534-0.001,6.399-2.866,6.399-6.4v-32h25.601c3.534,0,6.399-2.865,6.399-6.399v-96v-72
		c56.979-30.007,96.001-89.59,96.001-158.398C1257.669,1137.131,1177.362,1056.824,1078.469,1056.824z M1078.469,1069.624
		c91.976,0,166.4,74.424,166.4,166.4c0,65.396-37.604,121.776-92.4,149c-2.217,1.079-3.617,3.335-3.6,5.8v69.2h-140.801v-69.2
		c0.018-2.465-1.383-4.721-3.6-5.8c-54.797-27.224-92.4-83.604-92.4-149C912.068,1144.048,986.494,1069.624,1078.469,1069.624z
		 M1045.269,1120.824c-3.06,0.584-5.255,3.286-5.2,6.4v28.4c-4.105,1.969-8.066,4.253-11.8,6.8l-24.8-14.2
		c-3.057-1.778-6.975-0.742-8.752,2.312c-0.016,0.029-0.032,0.057-0.049,0.086l-32,55.6c-1.776,3.056-0.74,6.974,2.314,8.751
		c0.027,0.017,0.057,0.033,0.085,0.049l24.2,14c-0.161,2.342-0.398,4.688-0.398,7s0.237,4.658,0.398,7l-24.2,14
		c-3.082,1.73-4.179,5.632-2.448,8.714c0.016,0.029,0.032,0.057,0.049,0.085l32,55.601c1.729,3.082,5.633,4.181,8.715,2.448
		c0.029-0.016,0.058-0.032,0.086-0.049l24.8-14.2c3.731,2.547,7.692,4.831,11.8,6.8v28.4c0.001,3.534,2.866,6.399,6.4,6.4h64
		c3.533-0.001,6.398-2.866,6.4-6.4v-28.4c4.105-1.969,8.066-4.253,11.799-6.8l24.801,14.2c3.056,1.777,6.974,0.741,8.751-2.313
		c0.017-0.027,0.032-0.058,0.049-0.084l32-55.603c1.776-3.056,0.741-6.973-2.313-8.751c-0.028-0.017-0.058-0.033-0.086-0.049
		l-24.199-14c0.16-2.342,0.398-4.688,0.398-7s-0.238-4.658-0.398-7l24.199-14c3.082-1.73,4.18-5.632,2.448-8.714
		c-0.016-0.029-0.032-0.057-0.049-0.085l-32-55.6c-1.729-3.083-5.632-4.179-8.714-2.449c-0.029,0.016-0.059,0.033-0.086,0.049
		l-24.801,14.2c-3.731-2.547-7.692-4.831-11.799-6.8v-28.4c-0.002-3.535-2.867-6.4-6.4-6.4h-64c-0.2-0.009-0.4-0.009-0.6,0
		C1045.668,1120.815,1045.469,1120.815,1045.269,1120.824z M1052.869,1133.624h51.199v25.6c-0.027,2.632,1.561,5.013,4,6
		c6.092,2.538,11.824,5.659,17,9.6c2.006,1.577,4.756,1.813,7,0.6l22.2-12.8l25.601,44.4l-22,12.8
		c-2.271,1.282-3.537,3.814-3.199,6.4c0.392,3.101,0.6,6.429,0.6,9.8s-0.208,6.699-0.6,9.8c-0.338,2.586,0.929,5.118,3.199,6.4
		l22,12.8l-25.601,44.4l-22.2-12.8c-2.244-1.213-4.994-0.977-7,0.6c-5.176,3.941-10.908,7.062-17,9.6c-2.439,0.987-4.027,3.368-4,6
		v25.601h-51.199v-25.601c0.027-2.632-1.561-5.013-4-6c-6.092-2.538-11.824-5.659-17-9.6c-2.006-1.577-4.756-1.813-7-0.6
		l-22.199,12.8l-25.602-44.4l22-12.8c2.271-1.282,3.537-3.814,3.2-6.4c-0.392-3.101-0.601-6.429-0.601-9.8s0.209-6.699,0.601-9.8
		c0.337-2.586-0.929-5.118-3.2-6.4l-22-12.8l25.602-44.4l22.199,12.8c2.244,1.213,4.994,0.977,7-0.6
		c5.176-3.941,10.908-7.062,17-9.6c2.439-0.987,4.027-3.368,4-6V1133.624z M1079.47,1170.324c-34.261,0-62.2,27.94-62.2,62.2
		c0,34.26,27.939,62.2,62.2,62.2c34.26,0,62.2-27.94,62.2-62.2C1141.67,1198.264,1113.729,1170.324,1079.47,1170.324z
		 M1079.47,1185.874c25.854,0,46.649,20.793,46.649,46.65c0,25.857-20.795,46.65-46.649,46.65c-25.856,0-46.65-20.793-46.65-46.65
		C1032.819,1206.667,1053.613,1185.874,1079.47,1185.874z M1008.068,1472.824h140.801v83.2h-140.801V1472.824z M1040.068,1568.824
		h76.801v25.601h-76.801V1568.824z M1105.781,1230.198c-0.875-0.899-2.1-1.374-3.352-1.305l-15.141,0.842l8.332-9.49
		c1.188-1.352,1.525-3.154,1.067-4.764c-0.243-1.104-0.911-2.107-1.938-2.749c-0.031-0.022-19.918-11.575-19.918-11.575
		c-1.623-0.944-3.67-0.735-5.07,0.514l-9.715,8.666c-1.791,1.596-1.947,4.341-0.351,6.131c1.597,1.789,4.343,1.946,6.132,0.35
		l7.364-6.57l6.089,3.536l-10.748,12.24c-4.457,0.727-8.466,2.78-11.613,5.741l5.611,5.611c2.537-2.307,5.906-3.715,9.598-3.715
		c7.873,0,14.278,6.406,14.278,14.279c0,3.692-1.407,7.06-3.716,9.597l5.613,5.613c3.736-3.975,6.031-9.322,6.031-15.209
		c0-3.507-0.813-6.824-2.262-9.773l5.86-0.326l-1.427,17.488c-0.194,2.391,1.586,4.486,3.977,4.682
		c0.119,0.01,0.239,0.014,0.357,0.014c2.238,0,4.139-1.72,4.322-3.99l1.832-22.454
		C1107.102,1232.331,1106.658,1231.096,1105.781,1230.198z M1097.738,1211.594c4.016,0,7.27-3.253,7.27-7.269
		c0-4.015-3.254-7.269-7.27-7.269c-4.015,0-7.269,3.254-7.269,7.269C1090.47,1208.341,1093.724,1211.594,1097.738,1211.594z
		 M1072.131,1262.22c-7.873,0-14.278-6.405-14.278-14.279c0-2.967,0.91-5.724,2.466-8.011l-5.673-5.672
		c-2.956,3.772-4.724,8.52-4.724,13.683c0,12.266,9.943,22.209,22.209,22.209c5.164,0,9.912-1.767,13.684-4.723l-5.673-5.672
		C1077.856,1261.309,1075.099,1262.22,1072.131,1262.22z"/>
</g>
<rect x="352.115" y="335.094" fill="none" width="605.97" height="184.491"/>
<text transform="matrix(1 0 0 1 -4.0034 566.9854)" fill="#FFFFFF" font-family="'FuturaLT-Heavy'" font-size="204.9876">CreateAble</text>
</svg>
